# This file uses centimeters as units for non-parametric coordinates.

mtllib Objects.mtl
g default1
v 3.188783 0.751348 0.748183
v 0.952715 0.751348 1.474725
v 0.952715 0.751348 3.825866
v 3.188783 0.751348 4.552409
v 4.570749 0.751348 2.650296
v 2.570749 4.751348 2.650296
v -4.057692 2.170995 0.019231
v 0.942308 2.170995 0.019231
v -4.057692 2.170995 -4.980769
v 0.942308 2.170995 -4.980769
v -0.586016 3.807565 1.287084
v 1.287084 3.807565 0.586016
v -0.586016 5.807565 1.287084
v 1.287084 5.807565 0.586016
v -1.287084 5.807565 -0.586016
v 0.586016 5.807565 -1.287084
v -1.287084 3.807565 -0.586016
v 0.586016 3.807565 -1.287084
g softMod1Set tweakSet1
v -5.643865 4.800468 -0.909568
v -1.136981 3.449838 -2.601844
v -7.401480 4.800468 -5.590464
v -2.894596 3.449838 -7.282740
g default1
v -7.262034 6.677761 2.252815
v -2.862291 4.643476 1.026460
v -8.329436 7.290648 -2.593320
v -3.929693 5.256363 -3.819675
vt 0.654509 -0.975528
vt 0.095491 -0.793893
vt 0.095491 -0.206107
vt 0.654508 -0.024472
vt 1.000000 -0.500000
vt 0.000000 0.000000
vt 0.200000 0.000000
vt 0.400000 0.000000
vt 0.600000 0.000000
vt 0.800000 0.000000
vt 1.000000 0.000000
vt 0.500000 1.000000
vt 0.000000 0.000000
vt 1.000000 0.000000
vt 0.000000 1.000000
vt 1.000000 1.000000
vt 0.000000 0.000000
vt 1.000000 0.000000
vt 0.000000 1.000000
vt 1.000000 1.000000
vt 0.000000 2.000000
vt 1.000000 2.000000
vt 0.000000 3.000000
vt 1.000000 3.000000
vt 0.000000 4.000000
vt 1.000000 4.000000
vt 2.000000 0.000000
vt 2.000000 1.000000
vt -1.000000 0.000000
vt -1.000000 1.000000
vt 0.000000 0.000000
vt 1.000000 0.000000
vt 0.000000 1.000000
vt 1.000000 1.000000
vt 0.000000 0.000000
vt 1.000000 0.000000
vt 0.000000 1.000000
vt 1.000000 1.000000
vn 0.000000 -1.000000 0.000000
vn 0.000000 -1.000000 0.000000
vn 0.000000 -1.000000 0.000000
vn 0.000000 -1.000000 0.000000
vn 0.000000 -1.000000 0.000000
vn -0.286467 0.374991 -0.881656
vn -0.286467 0.374991 -0.881656
vn -0.286467 0.374991 -0.881656
vn -0.927028 0.374991 0.000000
vn -0.927028 0.374991 0.000000
vn -0.927028 0.374991 0.000000
vn -0.286468 0.374991 0.881656
vn -0.286468 0.374991 0.881656
vn -0.286468 0.374991 0.881656
vn 0.749982 0.374991 0.544894
vn 0.749982 0.374991 0.544894
vn 0.749982 0.374991 0.544894
vn 0.749982 0.374991 -0.544894
vn 0.749982 0.374991 -0.544894
vn 0.749982 0.374991 -0.544894
vn 0.000000 1.000000 0.000000
vn 0.000000 1.000000 0.000000
vn 0.000000 1.000000 0.000000
vn 0.000000 1.000000 0.000000
vn 0.000000 1.000000 0.000000
vn 0.000000 1.000000 0.000000
vn 0.350534 0.000000 0.936550
vn 0.350534 0.000000 0.936550
vn 0.350534 0.000000 0.936550
vn 0.350534 0.000000 0.936550
vn 0.350534 0.000000 0.936550
vn 0.350534 0.000000 0.936550
vn 0.000000 1.000000 0.000000
vn 0.000000 1.000000 0.000000
vn 0.000000 1.000000 0.000000
vn 0.000000 1.000000 0.000000
vn 0.000000 1.000000 0.000000
vn 0.000000 1.000000 0.000000
vn -0.350534 0.000000 -0.936550
vn -0.350534 0.000000 -0.936550
vn -0.350534 0.000000 -0.936550
vn -0.350534 0.000000 -0.936550
vn -0.350534 0.000000 -0.936550
vn -0.350534 0.000000 -0.936550
vn 0.000000 -1.000000 0.000000
vn 0.000000 -1.000000 0.000000
vn 0.000000 -1.000000 0.000000
vn 0.000000 -1.000000 0.000000
vn 0.000000 -1.000000 0.000000
vn 0.000000 -1.000000 0.000000
vn 0.936550 0.000000 -0.350534
vn 0.936550 0.000000 -0.350534
vn 0.936550 0.000000 -0.350534
vn 0.936550 0.000000 -0.350534
vn 0.936550 0.000000 -0.350534
vn 0.936550 0.000000 -0.350534
vn -0.936550 0.000000 0.350534
vn -0.936550 0.000000 0.350534
vn -0.936550 0.000000 0.350534
vn -0.936550 0.000000 0.350534
vn -0.936550 0.000000 0.350534
vn -0.936550 0.000000 0.350534
vn 0.252886 0.962825 -0.094956
vn 0.252886 0.962825 -0.094956
vn 0.252886 0.962825 -0.094956
vn 0.252886 0.962825 -0.094956
vn 0.252886 0.962825 -0.094956
vn 0.252886 0.962825 -0.094956
vn 0.424401 0.905231 0.021006
vn 0.424401 0.905231 0.021006
vn 0.424401 0.905231 0.021006
vn 0.424401 0.905231 0.021006
vn 0.424401 0.905231 0.021006
vn 0.424401 0.905231 0.021006
s 1
g pCone1 polySurface1
usemtl initialShadingGroup1
f 1/1/1 5/5/2 2/2/3
f 5/5/2 4/4/4 2/2/3
f 4/4/4 3/3/5 2/2/3
s off
f 1/6/6 2/7/7 6/12/8
f 2/7/9 3/8/10 6/12/11
f 3/8/12 4/9/13 6/12/14
f 4/9/15 5/10/16 6/12/17
f 5/10/18 1/11/19 6/12/20
g pPlane1 polySurface1
f 7/13/21 8/14/22 9/15/23
f 8/14/24 10/16/25 9/15/26
g pCube1 polySurface1
f 11/17/27 12/18/28 13/19/29
f 12/18/30 14/20/31 13/19/32
f 13/19/33 14/20/34 15/21/35
f 14/20/36 16/22/37 15/21/38
f 15/21/39 16/22/40 17/23/41
f 16/22/42 18/24/43 17/23/44
f 17/23/45 18/24/46 11/25/47
f 18/24/48 12/26/49 11/25/50
f 12/18/51 18/27/52 14/20/53
f 18/27/54 16/28/55 14/20/56
f 17/29/57 11/17/58 15/30/59
f 11/17/60 13/19/61 15/30/62
g group pasted__pPlane1 polySurface1
f 19/31/63 20/32/64 21/33/65
f 20/32/66 22/34/67 21/33/68
g group1 pasted__group pasted__pasted__pPlane1 polySurface1
f 23/35/69 24/36/70 25/37/71
f 24/36/72 26/38/73 25/37/74
